# xmcd
# 
# Track frame offsets:
#     150
#     26085
#     50783
#     74505
#     100655
#     122945
#     147295
#     163150
#     184248
#     203735
#     227963
# 
# Disc length: 3223
# 
# Revision: 5
# Processed by: cddbd v1.5.2PL0 Copyright (c) Steve Scherf et al.
# Submitted via: BonkEnc v1.0.6
# 
DISCID=a80c950b
DTITLE=Twila Paris - Beyond A Dream
DYEAR=1993
DGENRE=Contemporary Christian
TTITLE0=God Is In Control
TTITLE1=Watch And Pray
TTITLE2=Neither Will I
TTITLE3=All About You
TTITLE4=Visitor From Heaven
TTITLE5=Seventy Years Ago
TTITLE6=I Will Worship
TTITLE7=All My Heart
TTITLE8=Rescue The Prisoner
TTITLE9=What Am I Without You
TTITLE10=The Light Is Shining
EXTD=
EXTT0=
EXTT1=
EXTT2=
EXTT3=
EXTT4=
EXTT5=
EXTT6=
EXTT7=
EXTT8=
EXTT9=
EXTT10=
PLAYORDER=
